<?xml version="1.0" encoding="utf-8"?>
<svg xmlns="http://www.w3.org/2000/svg" style="margin: auto; display: block; shape-rendering: auto; animation-play-state: running; animation-delay: 0s; background: none;" width="280" height="250" preserveAspectRatio="xMidYMid">
<style type="text/css" style="animation-play-state: running; animation-delay: 0s;">
  text {
    text-anchor: middle; font-size: 94px; opacity: 0;
  }
</style>
<g style="transform-origin: 140px 125px; transform: scale(1.175); animation-play-state: running; animation-delay: 0s;">
<g transform="translate(140,125)" style="animation-play-state: running; animation-delay: 0s;">
  <g transform="translate(0,0)" style="animation-play-state: running; animation-delay: 0s;"><g class="path" style="opacity: 1; transform-origin: -74.64px -6.0008px; animation: 1s linear -0.495s infinite normal forwards running fade-862c27f6-9ca1-43a0-bf50-a65880f05c4c;"><path d="M25.68 0.88L25.68 0.88L25.68 0.88Q15.20 0.88 8.80-6.16L8.80-6.16L8.80-6.16Q2.40-13.20 2.40-24.80L2.40-24.80L2.40-24.80Q2.40-38 10.40-47.04L10.40-47.04L10.40-47.04Q18.40-56.08 30.08-56.08L30.08-56.08L30.08-56.08Q34.72-56.08 38.68-55.24L38.68-55.24L38.68-55.24Q42.64-54.40 44.32-53.52L44.32-53.52L45.92-52.64L41.28-41.52L41.28-41.52Q38.88-43.12 34.80-44.52L34.80-44.52L34.80-44.52Q30.72-45.92 27.60-45.92L27.60-45.92L27.60-45.92Q21.12-45.92 17.20-41.36L17.20-41.36L17.20-41.36Q13.28-36.80 13.28-29.28L13.28-29.28L13.28-29.28Q13.28-19.12 17-13.44L17-13.44L17-13.44Q20.72-7.76 27.36-7.76L27.36-7.76L27.36-7.76Q31.68-7.76 35.52-8.96L35.52-8.96L35.52-21.36L25.20-21.36L26-29.44L45.20-29.44L44.48-16.40L45.04-2.56L45.04-2.56Q33.28 0.88 25.68 0.88" fill="#93dbe9" stroke="none" stroke-width="none" transform="translate(-98.79998779296875,21.59920150756836)" style="fill: rgb(147, 219, 233); animation-play-state: running; animation-delay: 0s;"></path></g><g class="path" style="opacity: 1; transform-origin: -22.2px -6.0408px; animation: 1s linear -0.33s infinite normal forwards running fade-862c27f6-9ca1-43a0-bf50-a65880f05c4c;"><path d="M101.12-1.36L89.60 0.40L85.68-15.20L66.56-15.20L62.32 0L52.08-0.80L59.12-20.24L69.84-54.64L84.16-55.68L94.48-21.44L101.12-1.36zM83.28-23.68L76.96-45.28L75.92-45.28L69.04-23.68L83.28-23.68" fill="#93dbe9" stroke="none" stroke-width="none" transform="translate(-98.79998779296875,21.59920150756836)" style="fill: rgb(104, 156, 197); animation-play-state: running; animation-delay: 0s;"></path></g><g class="path" style="opacity: 1; transform-origin: 27.68px -6.0008px; animation: 1s linear -0.165s infinite normal forwards running fade-862c27f6-9ca1-43a0-bf50-a65880f05c4c;"><path d="M128 0.88L128 0.88L128 0.88Q117.52 0.88 111.12-6.16L111.12-6.16L111.12-6.16Q104.72-13.20 104.72-24.80L104.72-24.80L104.72-24.80Q104.72-38 112.72-47.04L112.72-47.04L112.72-47.04Q120.72-56.08 132.40-56.08L132.40-56.08L132.40-56.08Q137.04-56.08 141-55.24L141-55.24L141-55.24Q144.96-54.40 146.64-53.52L146.64-53.52L148.24-52.64L143.60-41.52L143.60-41.52Q141.20-43.12 137.12-44.52L137.12-44.52L137.12-44.52Q133.04-45.92 129.92-45.92L129.92-45.92L129.92-45.92Q123.44-45.92 119.52-41.36L119.52-41.36L119.52-41.36Q115.60-36.80 115.60-29.28L115.60-29.28L115.60-29.28Q115.60-19.12 119.32-13.44L119.32-13.44L119.32-13.44Q123.04-7.76 129.68-7.76L129.68-7.76L129.68-7.76Q134-7.76 137.84-8.96L137.84-8.96L137.84-21.36L127.52-21.36L128.32-29.44L147.52-29.44L146.80-16.40L147.36-2.56L147.36-2.56Q135.60 0.88 128 0.88" fill="#93dbe9" stroke="none" stroke-width="none" transform="translate(-98.79998779296875,21.59920150756836)" style="fill: rgb(94, 111, 163); animation-play-state: running; animation-delay: 0s;"></path></g><g class="path" style="opacity: 1; transform-origin: 80.52px -5.7608px; animation: 1s linear 0s infinite normal forwards running fade-862c27f6-9ca1-43a0-bf50-a65880f05c4c;"><path d="M176.48 0.88L176.48 0.88L176.48 0.88Q169.28 0.88 164.36-3.52L164.36-3.52L164.36-3.52Q159.44-7.92 159.44-14.40L159.44-14.40L158.64-53.60L170.16-55.60L168.88-20.56L168.88-20.56Q168.88-14.96 171.48-11.84L171.48-11.84L171.48-11.84Q174.08-8.72 179.52-8.72L179.52-8.72L179.52-8.72Q184.96-8.72 187.36-11.76L187.36-11.76L187.36-11.76Q189.76-14.80 189.76-22.24L189.76-22.24L188.80-53.60L200-55.60L199.12-20.40L199.12-20.40Q199.12-10.96 192.80-5.04L192.80-5.04L192.80-5.04Q186.48 0.88 176.48 0.88" fill="#93dbe9" stroke="none" stroke-width="none" transform="translate(-98.79998779296875,21.59920150756836)" style="fill: rgb(59, 67, 104); animation-play-state: running; animation-delay: 0s;"></path></g></g>
</g>
</g>
<style id="fade-862c27f6-9ca1-43a0-bf50-a65880f05c4c" data-anikit="">@keyframes fade-862c27f6-9ca1-43a0-bf50-a65880f05c4c
{
  0% {
    animation-timing-function: cubic-bezier(0.2057,0.573,0.3723,0.9184);
    opacity: 1;
  }
  100% {
    opacity: 0;
  }
}</style></svg>